<?xml version="1.0" encoding="UTF-8"?>
<!-- Created with Inkscape by VulcanSphere (https://www.inkscape.org/ and https://vulcansphere.com) -->
<svg id="svg1" width="467.93" height="212.58" version="1.1" viewBox="0 0 467.93 212.58" xml:space="preserve" xmlns="http://www.w3.org/2000/svg"><title id="title1">Attack on Titan (International Anglophone)</title>
<desc id="desc1">Post-apocalyptic fantasy animanga by Hajime Isayama, this variant of logo is used for North American and the rest of English-speaking region</desc><g id="g1" transform="translate(1245.8 1300.1)"><path id="path1" d="m-1071-1154.1-17.392 1.0348c-0.3434-3.2905-2.4628-21.286-2.4628-21.286 24.383-2.2637 42.871-3.616 67.797-6.0878 0.814 7.7802 1.2514 13.318 2.3288 21.424 0 0-18.052 1.6873-27.21 2.3429 0 0 3.9808 55.924 5.2905 67.849-9.0783 0.626-11.416 0.9511-21.496 1.3484-0.9898-11.34-6.344-60.877-6.8562-66.625zm53.946-26.386c4.538-0.4601 19.839-2.179 20.259-1.7582 2.3702 19.445 5.7528 61.215 9.0977 88.683 0 0-13.154 0.8852-22.185 1.3269-0.6933-7.3811-5.8924-75.12-7.1709-88.252zm52.72 84.16-6.1859-67.702c-6.2166 0.6262-13.386 1.1423-18.763 1.4245l-1.7165-21.208c23.497-1.5381 33.601-2.6542 66.331-5.2331 0 0 2.6252 20.812 2.5598 20.779 0 0-19.953 1.7792-26.677 2.3701 1.6129 21.045 3.8187 38.033 6.313 68.052 0 0-20.505 1.6038-21.862 1.5182zm29.787 1.7228c-0.0936-0.085-0.53313-0.3451-0.97666-0.5786-1.5253-0.803-1.6323-1.1367-1.1685-2.3625 12.498-33.032 18.981-50.005 36.71-94.641 0.18096-0.4557 0.41054-0.3703 0.8462-0.1422 0.26318 0.1377 0.5614 0.2509 0.6627 0.2515 0.0349 2e-4 10.359 13.703 16.142 23.471 1.4534 2.4549 23.682 36.431 23.685 36.661 5.6e-4 0.058 0.21298 0.2027 0.47181 0.321 0.4434 0.2027 0.39049 0.2051 0.35413-0.1958-1.767-19.487-2.344-41.758-3.7082-62.464 4.1926-1.8463 23.61-2.1455 26.16-2.5312 9.4813-0.2512 16.378 1.2471 29.795 5.3485 1.6364 0.5002 8.2496 3.7478 8.8181 4.1765 8.4476 6.3708 9.8624 12.035 13.449 21.147 0.59939 1.3319 0.58066 2.139 0.96819 3.9553 2.6161 11.165 3.1631 25.143 3.8031 36.528 0.13907 2.6435 0.33017 5.8177 0.42467 7.0537 0.21155 2.7669 0.2886 6.7123 0.13592 6.9601-0.14778 0.2399-10.671 0.8924-22.299 0.9031-0.88057-2.4603-4.8122-50.347-5.0813-51.938-0.35387-2.0921-1.1243-3.2786-2.8957-4.8018-2.596-2.2325-9.7563-6.1785-11.84-6.5772-2.4782-0.5445-10.408-0.2783-14.683-0.094-2.0475 0.088 3.74 66.939 3.74 66.939s-25.142 0.926-36.475 2.2788c0 0-25.624-41.469-26.512-42.09-1.3076 2.5433-9.5273 20.863-9.5273 20.863l12.961-3.1582 5.4768 19.803c-0.0921 0.151-34.543 11.811-46.808 14.544-0.53024 0.097-1.1096 0.254-1.2874 0.3495-0.40055 0.215-1.114 0.2254-1.3416 0.02zm-237.44-19.587c-15.967-1.0118-21.244-15.803-20.458-28.06 0.6903-10.771 7.5394-24.03 20.711-24.496 1.3696-0.048 22.934 1.3844 23.795 27.847-0.8701 14.559-8.0771 24.794-24.048 24.71zm1.6606-36.915c-3.7071 0.1382-6.8926 4.6664-7.3616 8.3462-0.6156 4.83 1.7469 12.714 6.6059 13.028 5.3442 0.3456 9.5821-7.9454 9.0505-13.274-0.3836-3.8456-4.4329-8.244-8.2948-8.1001zm27.498 32.972c-0.7617-21.934-3.3665-39.395-4.1301-50.641 0 0 12.553-1.0649 16.498-0.9975 8.6375 0.1475 15.223 2.5134 17.329 3.8333 7.3623 4.6151 9.475 14.011 9.5343 14.277 1.5203 6.8214 1.9881 24.005 2.4875 30.466 0.022 0.2861-10.676 0.4878-10.947 0.058-0.086-1.4173-2.3849-26.284-4.5106-30.277-0.6178-1.1606-3.4684-4.6473-5.5504-5.6955-1.2912-0.9059-5.164-1.1371-6.656-1.0968-1.6717 0.045-1.9294 2.6786-2.0083 3.2335-0.081 0.5699-0.1143 1.3971-0.2022 1.9217-0.1177 0.7018-0.1222 1.349-0.1283 1.7337-0.043 2.7513 0.4895 25.742 1.1361 32.654zm-97.995-56.576c-0.8146 0.2395-3.7194 1.3092-4.3704 0.637-0.6588-0.3789-0.6837-1.5398-0.6018-2.1505 0.068-0.505 0.1562-0.994 0.979-3.0893 11.419-26.706 23.776-62.149 35.323-88.781 0.6794-1.6308 1.3166-2.7876 1.561-2.8342 0.097-0.019 0.7564-0.2855 0.9644 0.043 4.2021 6.6335 54.229 86.293 53.028 86.382-8.3607 0.6217-14.966 1.3297-21.83 1.7511-1.032 0.064-6.5961-9.0229-12.27-17.94l-15.901-26.298c-1.6305 4.4622-9.0076 23.282-9.0087 23.288l8.3017-2.522c2.3277-0.7071 4.9871-1.9272 5.0774-1.6308 1.5565 5.1454 1.9177 6.0345 1.9177 6.0345l4.3144 13.378c-19.201 5.12-26.611 7.5929-47.483 13.732zm92.209-10.672c-0.8835-12.591-6.1579-68.3-6.1579-68.3l-18.854 1.5736c-0.6831-5.1923-2.1395-20.091-1.9108-20.519 42.416-3.145 77.171-6.1457 132.31-10.662 0 0 0.163 9.6723 0.5549 20.904-12.595 0.3835-19.974 0.6218-27.221 1.1763-0.4043 0.4056 7.7875 68.198 7.4507 68.696-7.9883 0.7086-14.071 1.6305-22.218 1.9397-1.5814-13.951-5.7724-67.854-5.7724-67.854l-41.997 3.1103c0.436 10.976 3.9107 56.676 4.3656 68.894 0.1734 0.1102-20.548 1.0416-20.548 1.0416zm92.922-4.8743c11.943-28.987 25.254-66.332 37.073-95.376 0.1679-0.4056 0.349-0.8294 0.3523-0.9642 0.01-0.3013 1.7461-0.4681 2.1901 0.2625 16.317 26.849 31.61 52.12 52.373 83.188 0.028 0.042 0.17734 0.3324 0.3941 0.6265 0.34942 0.4742 0.36379 0.5652 0.12667 0.8032-0.1062 0.1064-22.782 2.3881-23.14 1.8539-3.2691-4.8787-26.534-43.69-26.78-43.619-0.4432 0.1283-8.0627 22.358-8.0627 22.358l12.73-3.3269c2.0065 6.6052 3.7863 12.861 6.3859 19.216 0.2012 0.4942 0.063 0.5855-0.4025 0.6793-14.112 4.163-25.872 7.438-39.951 10.905-1.9795 0.4875-13.288 3.8784-13.288 3.3942zm132.41-9.6754c-15.514-2.3959-25.327-3.9124-39.558-15.672-5.2074-4.3028-17.313-22.148-20.579-32.849-2.1207-6.9483-1.9861-13.361-2.8095-20.931-0.73181-6.7275-0.47681-11.997-0.26516-19.212 22.923-2.3912 44.618-4.746 62.985-5.4629 0.91869 7.5161 2.6875 20.63 2.6875 20.63-0.13153-0.066-43.751 5.0694-43.895 5.1291 0 0-0.38801 6.1575 2.1251 13.944 1.6122 4.9949 3.2463 8.5057 7.9909 14.348 3.015 3.7126 6.8024 7.9807 11.663 10.744 5.7526 3.2703 17.668 8.5808 23.379 8.8335zm8.5876-94.971 19.971-1.3887s1.962 20.866 2.8543 28.637c0.0265 0.2306 3.8555-6.9405 6.6941-11.237 3.9296-6.9289 7.5537-13.614 11.028-19.345 6.9683-0.5419 23.732-2.3744 23.389-1.66-6.3808 13.291-24.804 41.185-24.804 45.849 0 1.0153 37.8 40.836 37.971 41.559 0.0303 0.128-0.0825 0.3229-0.2688 0.3353-9.5431 0.6371-15.852 1.4735-25.847 2.0871-0.16697 0.01-8.4254-7.5253-10.545-9.7358-3.5561-3.7096-4.6751-4.8898-8.1538-8.5995-2.8228-3.0101-5.247-5.4119-5.4625-5.4119-0.16854 0-0.20129 0.2256-0.12398 0.8539 4e-3 2.7423 1.8971 23.111 1.9743 25.514-0.53592 0.1616-13.734 1.2614-22.391 1.9261-2.7921-30.543-6.2856-89.384-6.2856-89.384z" fill="#7c7c7c" stroke-width=".56092"/></g></svg>